<svg width="116" height="22" viewBox="0 0 116 22" fill="none" xmlns="http://www.w3.org/2000/svg">
<path d="M4.061 21.262H0V7.99824C0 7.67074 0.03275 7.34324 0.131 7.01574C0.22925 6.72099 0.42575 6.42624 0.753249 6.19699C1.01525 6.00049 1.2445 5.90224 1.5065 5.83674C1.7685 5.80399 2.0305 5.77124 2.2925 5.77124H7.40149C7.56524 5.77124 7.79449 5.77124 8.05649 5.80399C8.31849 5.83674 8.58049 5.86949 8.87524 5.96774C9.16999 6.06599 9.46474 6.16424 9.75949 6.32799C10.0542 6.49174 10.3162 6.72099 10.5782 6.98299C10.8402 7.27774 11.0695 7.63799 11.2332 7.99824C11.397 8.35849 11.4952 8.75149 11.5935 9.14449C11.659 9.53749 11.7245 9.93049 11.7245 10.2907C11.7572 10.651 11.7572 10.9785 11.7572 11.2732C11.7572 11.5352 11.7572 11.83 11.7245 12.223C11.7245 12.616 11.6917 13.009 11.6262 13.4347C11.5607 13.8605 11.4952 14.2862 11.3642 14.712C11.2332 15.1377 11.0695 15.5307 10.873 15.8255C10.611 16.2185 10.349 16.5132 10.0215 16.7097C9.69399 16.939 9.36649 17.07 9.03899 17.201C8.67874 17.2992 8.35124 17.3647 8.02374 17.3975C7.69624 17.4302 7.36874 17.4302 7.07399 17.4302H4.061V21.262ZM5.86225 14.3517C6.32075 14.3517 6.64825 14.2535 6.8775 14.057C7.10675 13.8605 7.27049 13.664 7.36874 13.4675C7.46699 13.2382 7.56524 12.9762 7.56524 12.6487C7.59799 12.354 7.59799 11.9937 7.59799 11.6335C7.59799 11.306 7.59799 10.9785 7.56524 10.7165C7.53249 10.4217 7.49974 10.1925 7.40149 9.93049C7.30324 9.70124 7.20499 9.50474 7.07399 9.37374C6.94299 9.24274 6.77924 9.14449 6.64825 9.07899C6.51725 9.01349 6.3535 8.98074 6.2225 8.94799C6.0915 8.94799 5.99325 8.91524 5.92775 8.91524H4.48675C4.454 8.91524 4.3885 8.94799 4.323 8.98074C4.2575 9.01349 4.192 9.04624 4.15925 9.07899C4.061 9.17724 4.02825 9.30824 4.02825 9.47199V14.3517H5.86225Z" fill="#050505"/>
<path d="M16.8329 5.77197V11.6015C16.8329 12.1582 16.8657 12.584 16.9312 12.9115C16.9967 13.2062 17.0949 13.4682 17.2259 13.632C17.3242 13.7957 17.4552 13.9595 17.6189 14.0577C17.7827 14.156 17.9137 14.2215 18.0774 14.2542C18.2412 14.287 18.3722 14.3197 18.5359 14.3525C18.6997 14.3525 18.8307 14.3852 18.9617 14.3852H19.7149C20.0424 14.3852 20.2717 14.3197 20.4354 14.156C20.5337 14.025 20.5992 13.9267 20.6319 13.7957C20.6319 13.6647 20.6647 13.5665 20.6647 13.4355V5.77197H24.7257V15.1057C24.7257 15.4332 24.6929 15.7607 24.6274 16.0882C24.5619 16.4157 24.3654 16.7105 24.0707 16.9725C23.8087 17.2345 23.4812 17.3655 23.1209 17.431C22.7607 17.4965 22.4987 17.4965 22.2694 17.4965H17.2259C16.4399 17.4965 15.7849 17.3982 15.2937 17.2017C14.8352 16.9725 14.4422 16.7432 14.1802 16.4812C13.6234 15.99 13.2304 15.3677 13.0667 14.6145C12.9029 13.8612 12.8047 13.0425 12.8047 12.1582V5.77197H16.8329Z" fill="#050505"/>
<path d="M29.9985 5.77197V11.6015C29.9985 12.1582 30.0312 12.584 30.0967 12.9115C30.1622 13.2062 30.2605 13.4682 30.3915 13.632C30.4897 13.7957 30.6207 13.9595 30.7845 14.0577C30.9482 14.156 31.0792 14.2215 31.243 14.2542C31.4067 14.287 31.5377 14.3197 31.7015 14.3525C31.8652 14.3525 31.9962 14.3852 32.1272 14.3852H32.8805C33.208 14.3852 33.4372 14.3197 33.601 14.156C33.6992 14.025 33.7647 13.9267 33.7975 13.7957C33.7975 13.6647 33.8302 13.5665 33.8302 13.4355V5.77197H37.8912V15.1057C37.8912 15.4332 37.8585 15.7607 37.7602 16.0882C37.6947 16.4157 37.4982 16.7105 37.2035 16.9725C36.9415 17.2345 36.614 17.3655 36.2537 17.431C35.8935 17.4965 35.6315 17.4965 35.4022 17.4965H30.3915C29.6055 17.4965 28.9505 17.3982 28.4592 17.2017C27.968 17.0052 27.575 16.776 27.313 16.514C26.7562 16.0227 26.3632 15.4005 26.1995 14.6472C26.003 13.894 25.9375 13.0752 25.9375 12.191V5.77197H29.9985Z" fill="#050505"/>
<path d="M39.1364 10.6185C39.1364 10.3238 39.1692 10.029 39.2019 9.70153C39.2347 9.37403 39.3002 9.04653 39.3984 8.68628C39.4967 8.32603 39.6277 7.99853 39.8242 7.70378C40.0207 7.37629 40.2499 7.08154 40.5447 6.81954C40.8722 6.55754 41.1997 6.36104 41.5599 6.23004C41.9202 6.09904 42.2804 6.00079 42.6734 5.93529C43.0337 5.86979 43.3939 5.83704 43.7214 5.83704C44.0489 5.83704 44.3764 5.83704 44.6384 5.83704L47.3239 5.90254L47.2584 8.94828L45.8502 8.91553C45.4572 8.91553 45.0642 8.94828 44.7039 9.04653C44.3437 9.14478 44.0489 9.37403 43.7542 9.73428C43.5249 10.0618 43.3612 10.422 43.2957 10.8478C43.2302 11.2408 43.1974 11.6338 43.1647 11.9613L43.0337 17.5615L38.9727 17.3978L39.1364 10.6185Z" fill="#050505"/>
<path d="M47.6857 14.3528H53.6789C53.7772 14.3528 53.8427 14.3201 53.9409 14.2546C54.0064 14.2218 54.0392 14.1236 54.0392 14.0253C54.0392 13.9598 54.0064 13.8943 53.9737 13.8616C53.9409 13.8288 53.8754 13.7961 53.8427 13.7633C53.7772 13.7306 53.6462 13.6651 53.4824 13.6323C53.3187 13.5668 53.0239 13.4686 52.5982 13.3048L50.2402 12.4861C49.7489 12.3223 49.2904 12.0931 48.8974 11.8638C48.5044 11.6346 48.1769 11.3071 47.9804 10.9468C47.8167 10.6521 47.7184 10.3573 47.6529 9.96434C47.5874 9.60409 47.5547 9.27659 47.5547 8.98184C47.5547 8.62159 47.5874 8.26134 47.6529 7.90109C47.7184 7.54084 47.8494 7.21334 48.0459 6.88584C48.3407 6.42734 48.7009 6.09984 49.0939 5.96884C49.5197 5.83784 50.0109 5.77234 50.6004 5.77234H57.9364V8.78534H51.9432C51.8777 8.78534 51.8122 8.78534 51.7139 8.78534C51.6157 8.78534 51.5502 8.78534 51.4519 8.81809C51.3864 8.81809 51.3537 8.85084 51.3209 8.88359C51.2882 8.91634 51.2554 8.94909 51.2554 9.01459C51.2554 9.11284 51.2882 9.17834 51.3209 9.17834C51.3537 9.21109 51.4192 9.24384 51.4847 9.27659C51.6157 9.30934 51.7139 9.34209 51.7467 9.37484C51.8122 9.40759 51.8449 9.40759 51.8777 9.44034C51.9104 9.47309 51.9759 9.47309 52.0087 9.50584C52.0742 9.53859 52.1397 9.57134 52.2707 9.60409L55.0544 10.5866C55.6439 10.7831 56.1352 11.0123 56.5609 11.2416C56.9867 11.4708 57.3142 11.7656 57.5762 12.1913C57.8382 12.5843 58.0019 13.0101 58.0674 13.4358C58.1329 13.8616 58.1657 14.1891 58.1657 14.4511C58.1657 14.8768 58.1002 15.3353 58.0019 15.7938C57.8709 16.2523 57.6417 16.6453 57.2487 16.9728C56.9539 17.2348 56.6592 17.3658 56.3317 17.4313C56.0042 17.4968 55.7094 17.5296 55.4474 17.5296H47.5874V14.3528H47.6857Z" fill="#050505"/>
<path d="M63.3383 21.2621H59.2773V7.9984C59.2773 7.6709 59.3101 7.3434 59.4083 7.0159C59.5066 6.72115 59.7031 6.4264 60.0306 6.1644C60.2926 5.9679 60.5218 5.86965 60.7838 5.80415C61.0458 5.7714 61.3078 5.73865 61.5698 5.73865H66.6788C66.8426 5.73865 67.0718 5.73865 67.3338 5.7714C67.5958 5.80415 67.8578 5.8369 68.1526 5.93515C68.4473 6.0334 68.7421 6.13165 69.0368 6.2954C69.3316 6.45915 69.5936 6.6884 69.8556 6.9504C70.1176 7.24515 70.3468 7.6054 70.5106 7.96565C70.6743 8.3259 70.7726 8.7189 70.8708 9.1119C70.9363 9.5049 71.0018 9.8979 71.0018 10.2581C71.0346 10.6184 71.0346 10.9459 71.0346 11.2406C71.0346 11.5026 71.0346 11.7974 71.0018 12.1904C71.0018 12.5834 70.9691 12.9764 70.9036 13.4021C70.8381 13.8279 70.7726 14.2536 70.6416 14.6794C70.5106 15.1051 70.3468 15.4981 70.1503 15.7929C69.8883 16.1859 69.6263 16.4806 69.2988 16.6771C68.9713 16.9064 68.6438 17.0374 68.3163 17.1684C67.9561 17.2666 67.6286 17.3321 67.3011 17.3649C66.9736 17.3976 66.6461 17.3976 66.3513 17.3976H63.3383V21.2621ZM65.1396 14.3519C65.5981 14.3519 65.9256 14.2536 66.1548 14.0571C66.3841 13.8606 66.5478 13.6641 66.6461 13.4676C66.7443 13.2384 66.8426 12.9764 66.8426 12.6489C66.8753 12.3541 66.8753 11.9939 66.8753 11.6336C66.8753 11.3061 66.8753 10.9786 66.8426 10.7166C66.8098 10.4219 66.7771 10.1926 66.6788 9.93065C66.5806 9.7014 66.4823 9.5049 66.3513 9.3739C66.2203 9.2429 66.0566 9.14465 65.9256 9.07915C65.7946 9.01365 65.6308 8.9809 65.4998 8.94815C65.3688 8.94815 65.2706 8.9154 65.2051 8.9154H63.7641C63.7313 8.9154 63.6658 8.94815 63.6003 8.9809C63.5348 9.01365 63.4693 9.0464 63.4366 9.07915C63.3383 9.1774 63.3056 9.3084 63.3056 9.47215V14.3519H65.1396Z" fill="#050505"/>
<path d="M79.8441 5.7714C80.5318 5.7714 81.0886 5.86965 81.5471 6.0989C82.0056 6.32815 82.3331 6.5574 82.5623 6.78665C82.7916 7.0159 82.9553 7.2779 83.1191 7.57265C83.2501 7.8674 83.3811 8.16215 83.4466 8.42415C83.5121 8.7189 83.5776 9.01365 83.5776 9.27565C83.6103 9.5704 83.6103 9.8324 83.6103 10.0616V14.9741C83.6103 15.2689 83.5776 15.5964 83.5121 15.9239C83.4466 16.2514 83.3156 16.5461 83.0536 16.8409C82.7916 17.1356 82.4968 17.2994 82.1693 17.3649C81.8418 17.4304 81.5143 17.4631 81.1868 17.4631H74.7023C74.3421 17.4631 74.0146 17.4304 73.6543 17.3649C73.2941 17.2994 72.9666 17.1356 72.7046 16.8409C72.5081 16.6444 72.3443 16.3824 72.2133 16.1204C72.0823 15.8256 71.9841 15.5636 71.9513 15.2361C71.8858 14.9414 71.8531 14.6466 71.8531 14.3519C71.8531 14.0571 71.8203 13.7951 71.8203 13.5659C71.8203 13.3039 71.8203 13.0419 71.8531 12.7799C71.8858 12.5179 71.9186 12.2231 71.9841 11.9611C72.0496 11.6991 72.1478 11.4371 72.2788 11.2079C72.4098 10.9786 72.5736 10.7821 72.8028 10.5856C73.0976 10.3236 73.4251 10.1926 73.7526 10.1271C74.0801 10.0944 74.4076 10.0616 74.7351 10.0616H79.5493V9.8979C79.5493 9.79965 79.5493 9.66865 79.5166 9.53765C79.4838 9.40665 79.4511 9.27565 79.3528 9.1119C79.1891 8.88265 78.9926 8.75165 78.7633 8.7189C78.5341 8.68615 78.3048 8.6534 78.1083 8.6534H72.5736V5.73865H79.8441V5.7714ZM76.6346 12.8781C76.5691 12.8781 76.4708 12.8781 76.3398 12.9109C76.2088 12.9436 76.1106 12.9764 76.0123 13.0746C75.9468 13.1401 75.9141 13.2384 75.8813 13.3366C75.8486 13.4349 75.8486 13.5331 75.8486 13.6314C75.8486 13.7296 75.8486 13.7951 75.8813 13.8934C75.9141 13.9916 75.9468 14.0571 76.0123 14.1226C76.0778 14.1881 76.1761 14.2536 76.2743 14.2864C76.3726 14.3191 76.4708 14.3191 76.5691 14.3191H78.6978C78.7961 14.3191 78.9271 14.3191 79.0253 14.2864C79.1236 14.2536 79.2218 14.2209 79.2873 14.1554C79.3856 14.0899 79.4511 13.9916 79.4511 13.8934C79.4838 13.7951 79.4838 13.6969 79.4838 13.5986V12.8781H76.6346Z" fill="#050505"/>
<path d="M84.8242 7.86736C84.8242 7.63811 84.857 7.40886 84.8897 7.14686C84.9225 6.88486 85.0535 6.65561 85.2827 6.42636C85.4465 6.26261 85.6102 6.13161 85.8067 6.03336C86.0032 5.93511 86.2325 5.86961 86.4617 5.83686C86.691 5.80411 86.8875 5.77136 87.1167 5.77136C87.346 5.77136 87.5097 5.77136 87.6735 5.77136H91.5052C92.1275 5.77136 92.7825 5.83686 93.4047 5.93511C94.027 6.03336 94.6492 6.32811 95.206 6.81936C95.5007 7.08136 95.7627 7.37611 95.9265 7.67086C96.0902 7.96561 96.254 8.26036 96.3522 8.58786C96.4505 8.88261 96.516 9.21011 96.5487 9.50486C96.5815 9.79961 96.5815 10.0616 96.5815 10.3236V17.5286H92.5205V11.5354C92.5205 11.1096 92.4877 10.7494 92.4222 10.4219C92.3567 10.0944 92.2257 9.79961 92.062 9.53761C91.8982 9.27561 91.669 9.11186 91.407 8.98086C91.145 8.88261 90.8175 8.81711 90.3917 8.81711H89.6712C89.573 8.81711 89.5075 8.81711 89.3765 8.84986C89.2782 8.88261 89.18 8.91536 89.0817 8.98086C88.9835 9.07911 88.918 9.17736 88.918 9.30836C88.918 9.40661 88.918 9.53761 88.918 9.63586V17.4631H84.857V7.86736H84.8242Z" fill="#050505"/>
<path d="M95.5312 18.4453C96.1207 18.4453 96.5793 18.4453 96.9068 18.347C97.2343 18.2815 97.529 18.1178 97.8237 17.8885C98.0857 17.6593 98.2822 17.3973 98.446 17.0698C98.577 16.7423 98.6753 16.2838 98.6753 15.6615V5.77101H102.736V16.5785C102.736 16.8405 102.736 17.1353 102.703 17.4628C102.671 17.7903 102.605 18.1505 102.507 18.5108C102.409 18.871 102.245 19.1985 102.016 19.526C101.787 19.8535 101.525 20.1483 101.164 20.4102C100.64 20.7705 99.9525 21.0325 99.0683 21.1308C98.184 21.229 97.0378 21.2945 95.564 21.2617V18.4453H95.5312ZM98.6753 4.59201V2.00476H102.736V4.59201H98.6753Z" fill="#050505"/>
<path d="M108.204 17.4971C107.778 17.4971 107.385 17.4971 107.025 17.4644C106.665 17.4644 106.304 17.3989 105.977 17.3006C105.649 17.2024 105.355 17.0386 105.06 16.8421C104.765 16.6456 104.536 16.3509 104.307 15.9579C104.078 15.5321 103.914 14.9754 103.848 14.3204C103.783 13.6654 103.75 12.8139 103.75 11.7331C103.75 11.2091 103.75 10.6851 103.75 10.1939C103.75 9.70263 103.783 9.24413 103.816 8.81838C103.881 8.39263 103.946 7.99963 104.077 7.67214C104.208 7.31189 104.405 7.01714 104.634 6.75514C104.896 6.46039 105.191 6.26389 105.584 6.10014C105.977 5.93639 106.37 5.83814 106.828 5.77264C107.287 5.70714 107.778 5.64164 108.269 5.64164C108.761 5.64164 109.285 5.60889 109.809 5.60889C110.922 5.60889 111.872 5.64164 112.592 5.70714C113.313 5.77264 113.902 6.00189 114.361 6.39489C114.623 6.62414 114.819 6.88614 114.983 7.21364C115.147 7.54114 115.278 7.86864 115.343 8.22889C115.442 8.58913 115.474 8.94938 115.507 9.30963C115.54 9.66988 115.54 9.99738 115.54 10.3249C115.54 10.7179 115.507 11.1109 115.442 11.4711C115.376 11.8641 115.18 12.1916 114.885 12.4536C114.721 12.6174 114.525 12.7156 114.361 12.7484C114.197 12.7811 114.001 12.7811 113.804 12.7811H107.811C107.811 12.9449 107.811 13.1086 107.844 13.3051C107.876 13.4689 107.942 13.6326 108.007 13.7636C108.171 14.0584 108.433 14.2221 108.793 14.2549C109.121 14.2876 109.481 14.3204 109.841 14.3204H115.18V17.4644H108.204V17.4971ZM110.824 10.0956C111.119 10.0956 111.282 10.0301 111.381 9.86638C111.446 9.73538 111.512 9.57163 111.512 9.47338C111.512 9.30963 111.446 9.14588 111.381 9.01488C111.282 8.88388 111.086 8.75288 110.791 8.68738C110.627 8.65463 110.431 8.62189 110.202 8.62189C109.973 8.62189 109.809 8.58914 109.711 8.58914C109.481 8.58914 109.219 8.58914 108.957 8.62189C108.695 8.65464 108.466 8.68739 108.302 8.78563C108.106 8.91664 107.975 9.08038 107.909 9.30963C107.844 9.53888 107.844 9.80088 107.876 10.0956H110.824Z" fill="#050505"/>
<path d="M115.769 2.53284C115.769 3.58977 114.961 4.398 113.904 4.398C112.847 4.398 112.039 3.58977 112.039 2.53284C112.039 1.47592 112.847 0.729858 113.966 0.729858C114.961 0.729858 115.769 1.53809 115.769 2.53284ZM112.474 2.53284C112.474 3.34108 113.096 4.02497 113.904 4.02497C114.712 4.02497 115.272 3.40325 115.272 2.59502C115.272 1.78678 114.65 1.10289 113.842 1.10289C113.096 1.10289 112.474 1.78678 112.474 2.53284ZM113.593 3.52759H113.158V1.66244C113.345 1.66244 113.531 1.60026 113.842 1.60026C114.215 1.60026 114.339 1.66244 114.464 1.72461C114.588 1.78678 114.65 1.91112 114.65 2.09764C114.65 2.34633 114.464 2.47067 114.277 2.53284C114.464 2.59502 114.526 2.71936 114.588 2.96805C114.65 3.21673 114.712 3.34108 114.712 3.40325H114.277C114.215 3.34108 114.215 3.15456 114.153 2.96805C114.091 2.78153 114.029 2.71936 113.78 2.71936H113.593V3.52759ZM113.593 2.47067H113.78C114.029 2.47067 114.215 2.4085 114.215 2.22198C114.215 2.03547 114.091 1.9733 113.842 1.9733C113.718 1.9733 113.656 1.9733 113.593 1.9733V2.47067Z" fill="#050505"/>
</svg>
